<?xml version="1.0" encoding="UTF-8"?><svg xmlns="http://www.w3.org/2000/svg" width="754" height="343" viewBox="0 0 754 343" fill="none"><path d="M713.231 322.223H510.831C510.831 322.223 480.463 312.069 493.128 299.351C505.793 286.634 578.309 266.326 615.385 266.326C652.46 266.326 698.864 297.642 698.864 243.455C698.864 189.268 714.048 133.371 677.79 152.858C641.532 172.345 442.502 257.848 442.502 257.848C442.502 257.848 421.428 267.147 421.428 281.574C418.126 343.282 330.085 257.95 291.579 310.36C272.173 336.616 257.84 355.248 212.322 328.137C166.803 301.026 197.955 300.206 97.6229 301.881C-41.5546 300.411 14.0755 102.089 2.97676 43.6288C7.33456 -35.7888 173.544 6.8772 168.471 80.8931C168.471 129.166 117.029 120.687 106.917 98.6706C96.8058 76.6539 85.8432 61.4063 71.5101 84.2777C57.177 107.149 42.8439 229.062 84.1749 229.062C125.506 229.062 102.73 177.404 166.803 191.797C213.5 204 235.074 239.125 281.5 241C308.532 242.092 310.5 242.5 371.688 217.233C441.685 184.208 676.939 74.9787 676.939 74.9787C762.086 43.5946 755.481 130.021 750.307 212.994C748.264 271.249 754.664 322.223 713.197 322.223H713.231Z" stroke="#DCD7D2" stroke-width="2" stroke-miterlimit="10"/><rect x="437.102" y="153.305" width="9.51899" height="9.51899" transform="rotate(65.0251 437.102 153.305)" fill="#DCD7D2"/><rect x="432.492" y="165.951" width="9.51899" height="9.51899" transform="rotate(65.0251 432.492 165.951)" fill="#DCD7D2"/><rect x="441.117" y="161.934" width="9.51899" height="9.51899" transform="rotate(65.0251 441.117 161.934)" fill="black"/><rect x="428.469" y="157.322" width="9.51899" height="9.51899" transform="rotate(65.0251 428.469 157.322)" fill="black"/><rect x="445.141" y="170.562" width="9.51899" height="9.51899" transform="rotate(65.0251 445.141 170.562)" fill="#DCD7D2"/><rect x="440.531" y="183.209" width="9.51899" height="9.51899" transform="rotate(65.0251 440.531 183.209)" fill="#DCD7D2"/><rect x="449.156" y="179.191" width="9.51899" height="9.51899" transform="rotate(65.0251 449.156 179.191)" fill="black"/><rect x="436.508" y="174.58" width="9.51899" height="9.51899" transform="rotate(65.0251 436.508 174.58)" fill="black"/><rect x="453.172" y="187.82" width="9.51899" height="9.51899" transform="rotate(65.0251 453.172 187.82)" fill="#DCD7D2"/><rect x="448.562" y="200.467" width="9.51899" height="9.51899" transform="rotate(65.0251 448.562 200.467)" fill="#DCD7D2"/><rect x="457.188" y="196.449" width="9.51899" height="9.51899" transform="rotate(65.0251 457.188 196.449)" fill="black"/><rect x="444.539" y="191.838" width="9.51899" height="9.51899" transform="rotate(65.0251 444.539 191.838)" fill="black"/><rect x="-0.494799" y="1.32483" width="53.764" height="31.0181" rx="15.5091" transform="matrix(-0.909814 0.415016 0.415016 0.909814 601.24 91.3248)" fill="#0B0B0B" stroke="#DCD7D2" stroke-width="2"/><path d="M577.43 121.199L591.437 114.81" stroke="#DCD7D2" stroke-width="2"/><path d="M589.148 121.617L591.742 114.674L584.798 112.081" stroke="#DCD7D2" stroke-width="2"/></svg>